<svg width="64" height="72" viewBox="0 0 64 72" fill="none" xmlns="http://www.w3.org/2000/svg">
    <path
    d="M8.008 63.6774C7.112 63.6774 6.25333 63.56 5.432 63.3254C4.61067 63.08 3.94933 62.7654 3.448 62.3814L4.328 60.4294C4.808 60.7707 5.37333 61.0534 6.024 61.2774C6.68533 61.4907 7.352 61.5974 8.024 61.5974C8.536 61.5974 8.94667 61.5494 9.256 61.4534C9.576 61.3467 9.81067 61.2027 9.96 61.0214C10.1093 60.84 10.184 60.632 10.184 60.3974C10.184 60.0987 10.0667 59.864 9.832 59.6934C9.59733 59.512 9.288 59.368 8.904 59.2614C8.52 59.144 8.09333 59.0374 7.624 58.9414C7.16533 58.8347 6.70133 58.7067 6.232 58.5574C5.77333 58.408 5.352 58.216 4.968 57.9814C4.584 57.7467 4.26933 57.4374 4.024 57.0534C3.78933 56.6694 3.672 56.1787 3.672 55.5814C3.672 54.9414 3.84267 54.36 4.184 53.8374C4.536 53.304 5.05867 52.8827 5.752 52.5734C6.456 52.2534 7.336 52.0934 8.392 52.0934C9.096 52.0934 9.78933 52.1787 10.472 52.3494C11.1547 52.5094 11.7573 52.7547 12.28 53.0854L11.48 55.0534C10.9573 54.7547 10.4347 54.536 9.912 54.3974C9.38933 54.248 8.87733 54.1734 8.376 54.1734C7.87467 54.1734 7.464 54.232 7.144 54.3494C6.824 54.4667 6.59467 54.6214 6.456 54.8134C6.31733 54.9947 6.248 55.208 6.248 55.4534C6.248 55.7414 6.36533 55.976 6.6 56.1574C6.83467 56.328 7.144 56.4667 7.528 56.5734C7.912 56.68 8.33333 56.7867 8.792 56.8934C9.26133 57 9.72533 57.1227 10.184 57.2614C10.6533 57.4 11.08 57.5867 11.464 57.8214C11.848 58.056 12.1573 58.3654 12.392 58.7494C12.6373 59.1334 12.76 59.6187 12.76 60.2054C12.76 60.8347 12.584 61.4107 12.232 61.9334C11.88 62.456 11.352 62.8774 10.648 63.1974C9.95467 63.5174 9.07467 63.6774 8.008 63.6774ZM17.0807 63.4854V58.9094L17.6727 60.4774L12.7447 52.2854H15.4968L19.2728 58.5734H17.6888L21.4808 52.2854H24.0248L19.0968 60.4774L19.6728 58.9094V63.4854H17.0807ZM28.5549 63.6774C27.6589 63.6774 26.8002 63.56 25.9789 63.3254C25.1575 63.08 24.4962 62.7654 23.9949 62.3814L24.8749 60.4294C25.3549 60.7707 25.9202 61.0534 26.5709 61.2774C27.2322 61.4907 27.8989 61.5974 28.5709 61.5974C29.0829 61.5974 29.4935 61.5494 29.8029 61.4534C30.1229 61.3467 30.3575 61.2027 30.5069 61.0214C30.6562 60.84 30.7309 60.632 30.7309 60.3974C30.7309 60.0987 30.6135 59.864 30.3789 59.6934C30.1442 59.512 29.8349 59.368 29.4509 59.2614C29.0669 59.144 28.6402 59.0374 28.1709 58.9414C27.7122 58.8347 27.2482 58.7067 26.7789 58.5574C26.3202 58.408 25.8989 58.216 25.5149 57.9814C25.1309 57.7467 24.8162 57.4374 24.5709 57.0534C24.3362 56.6694 24.2189 56.1787 24.2189 55.5814C24.2189 54.9414 24.3895 54.36 24.7309 53.8374C25.0829 53.304 25.6055 52.8827 26.2989 52.5734C27.0029 52.2534 27.8829 52.0934 28.9389 52.0934C29.6429 52.0934 30.3362 52.1787 31.0189 52.3494C31.7015 52.5094 32.3042 52.7547 32.8269 53.0854L32.0269 55.0534C31.5042 54.7547 30.9815 54.536 30.4589 54.3974C29.9362 54.248 29.4242 54.1734 28.9229 54.1734C28.4215 54.1734 28.0109 54.232 27.6909 54.3494C27.3709 54.4667 27.1415 54.6214 27.0029 54.8134C26.8642 54.9947 26.7949 55.208 26.7949 55.4534C26.7949 55.7414 26.9122 55.976 27.1469 56.1574C27.3815 56.328 27.6909 56.4667 28.0749 56.5734C28.4589 56.68 28.8802 56.7867 29.3389 56.8934C29.8082 57 30.2722 57.1227 30.7309 57.2614C31.2002 57.4 31.6269 57.5867 32.0109 57.8214C32.3949 58.056 32.7042 58.3654 32.9389 58.7494C33.1842 59.1334 33.3069 59.6187 33.3069 60.2054C33.3069 60.8347 33.1309 61.4107 32.7789 61.9334C32.4269 62.456 31.8989 62.8774 31.1949 63.1974C30.5015 63.5174 29.6215 63.6774 28.5549 63.6774ZM42.758 52.2854H45.35V63.4854H42.758V52.2854ZM37.67 63.4854H35.078V52.2854H37.67V63.4854ZM42.95 58.8934H37.478V56.7014H42.95V58.8934ZM47.9999 63.4854V52.2854H50.5919V63.4854H47.9999Z"
    fill="white" />
    <g clip-path="url(#clip0_41_215)">
    <path fill-rule="evenodd" clip-rule="evenodd"
        d="M2.80487 27.8216C5.55988 23.9456 9.93225 20.6919 14.7131 18.7349C18.3896 23.0455 20.9808 31.3794 15.0908 38.7395C9.918 36.1484 5.37463 31.833 2.80487 27.8216ZM17.3042 39.699C23.3961 31.5432 20.7599 22.6346 17.0834 17.8894C19.2114 17.2362 20.3039 17.0795 21.3085 16.9346C25.745 11.807 31.8488 12.2701 33.2951 12.3176C32.9223 13.0182 32.2383 14.1084 31.7917 17.64C38.6341 19.5542 40.9901 21.8342 45.9943 26.1259C46.9276 25.1046 49.267 22.4684 53.1762 21.4519C51.6871 25.639 51.5423 30.389 52.9886 34.2056C48.887 33.3055 46.2983 29.8356 45.9254 29.4224C40.698 34.8421 38.418 37.4974 31.7894 39.908C31.6683 42.2711 32.984 44.9572 33.2951 45.5462C31.6683 45.5985 25.6642 46.0307 21.2491 40.8556C20.0307 40.6181 19.038 40.3735 17.3042 39.699ZM0 27.7575C5.66912 37.3359 14.4709 41.8341 19.9904 43.024C22.9188 46.2801 27.1558 47.9307 32.5921 47.9307C34.2902 47.9307 35.5229 47.7882 37.582 47.5959C36.081 46.1851 34.7985 43.86 34.3472 41.485C39.6886 39.3119 43.1157 35.766 45.8969 32.8661C50.7205 37.5045 55.6035 36.7967 57 36.7967C56.1426 35.3076 51.7774 27.9784 57 18.7657C55.689 18.7871 50.6801 18.3881 45.8327 22.865C42.9661 20.395 39.7266 17.6305 34.4375 15.9371C34.9814 13.5502 35.9361 11.9186 37.5844 10.268C35.8744 10.1089 34.181 9.98535 32.5256 9.98535C27.8991 9.98535 23.5766 10.9449 20.1091 14.7116C9.4715 16.4192 2.96637 23.2307 0 27.7575ZM7.201 26.5581C7.201 27.8691 8.265 28.9331 9.576 28.9331C10.8846 28.9331 11.951 27.8691 11.951 26.5581C11.951 25.2495 10.8846 24.1831 9.576 24.1831C8.265 24.1831 7.201 25.2495 7.201 26.5581Z"
        fill="#ED8633" />
    </g>
    <defs>
    <clipPath id="clip0_41_215">
        <rect width="57" height="57" fill="white" transform="matrix(-1 0 0 1 57 0.485352)" />
    </clipPath>
    </defs>
</svg>